<?xml version="1.0" encoding="UTF-8"?>
<svg width="29px" height="20px" viewBox="0 0 29 20" version="1.1" xmlns="http://www.w3.org/2000/svg" xmlns:xlink="http://www.w3.org/1999/xlink">
    <!-- Generator: sketchtool 52.6 (67491) - http://www.bohemiancoding.com/sketch -->
    <title>D82D189E-F984-4DD2-8DD6-1263ED29D871</title>
    <desc>Created with sketchtool.</desc>
    <g id="Page-1" stroke="none" stroke-width="1" fill="none" fill-rule="evenodd">
        <g id="Main-Page" transform="translate(-912.000000, -1857.000000)" fill="#FFFFFF" fill-rule="nonzero">
            <g id="Footer" transform="translate(0.000000, 1757.000000)">
                <g id="Social-Media">
                    <g transform="translate(845.000000, 60.000000)">
                        <g id="email-svgrepo-com" transform="translate(67.000000, 40.000000)">
                            <path d="M25.2212237,0.0342307692 L3.50938158,0.0342307692 C1.57439474,0.0342307692 0,1.62115385 0,3.57153846 L0,16.1569231 C0,18.1073077 1.57439474,19.6942308 3.50938158,19.6942308 L25.2212237,19.6942308 C27.1562105,19.6942308 28.7306053,18.1073077 28.7306053,16.1569231 L28.7306053,3.57192308 C28.7309868,1.62115385 27.1565921,0.0342307692 25.2212237,0.0342307692 Z M23.5064079,2.34192308 L14.3653026,8.27807692 L5.22419737,2.34192308 L23.5064079,2.34192308 Z M25.2212237,17.3869231 L3.50938158,17.3869231 C2.83665789,17.3869231 2.28947368,16.835 2.28947368,16.1573077 L2.28947368,3.63730769 L13.659,11.0065385 C13.6742632,11.0161538 13.6906711,11.0226923 13.7063158,11.0315385 C13.7227237,11.0407692 13.7395132,11.0496154 13.7563026,11.0580769 C13.8444474,11.1038462 13.9352632,11.1407692 14.0279868,11.165 C14.0375263,11.1676923 14.0470658,11.1688462 14.0566053,11.1711538 C14.1584868,11.1953846 14.2615132,11.2103846 14.3645395,11.2103846 C14.3649211,11.2103846 14.3653026,11.2103846 14.3653026,11.2103846 C14.3660658,11.2103846 14.3664474,11.2103846 14.3668289,11.2103846 C14.4698553,11.2103846 14.5728816,11.1957692 14.6747632,11.1711538 C14.6843026,11.1688462 14.6938421,11.1676923 14.7033816,11.165 C14.7961053,11.1407692 14.8865395,11.1038462 14.9750658,11.0580769 C14.9918553,11.0496154 15.0086447,11.0407692 15.0250526,11.0315385 C15.0406974,11.0226923 15.0571053,11.0161538 15.0723684,11.0065385 L26.4418947,3.63730769 L26.4418947,16.1569231 C26.4415132,16.835 25.8939474,17.3869231 25.2212237,17.3869231 Z" id="Shape"></path>
                        </g>
                    </g>
                </g>
            </g>
        </g>
    </g>
</svg>