<?xml version="1.0" encoding="UTF-8"?>
<svg width="10px" height="20px" viewBox="0 0 10 20" version="1.1" xmlns="http://www.w3.org/2000/svg" xmlns:xlink="http://www.w3.org/1999/xlink">
    <!-- Generator: sketchtool 52.6 (67491) - http://www.bohemiancoding.com/sketch -->
    <title>77CBD2D0-1FEE-446A-8651-A628F895FBAD</title>
    <desc>Created with sketchtool.</desc>
    <g id="Page-1" stroke="none" stroke-width="1" fill="none" fill-rule="evenodd">
        <g id="Main-Page" transform="translate(-886.000000, -1857.000000)" fill="#FFFFFF">
            <g id="Footer" transform="translate(0.000000, 1757.000000)">
                <g id="Social-Media">
                    <g transform="translate(845.000000, 60.000000)">
                        <g id="facebook-svgrepo-com" transform="translate(41.000000, 40.000000)">
                            <path d="M0.353784119,10.652 L2.4617866,10.652 L2.4617866,19.6774194 C2.4617866,19.8556129 2.60062035,20 2.7719603,20 L6.34615385,20 C6.5174938,20 6.65632754,19.8556129 6.65632754,19.6774194 L6.65632754,10.6945161 L9.07965261,10.6945161 C9.23722084,10.6945161 9.36978908,10.5715484 9.38777916,10.4087742 L9.75583127,7.08606452 C9.76594293,6.99464516 9.73808933,6.90309677 9.6792804,6.83451613 C9.62040943,6.76587097 9.53616625,6.72658065 9.44776675,6.72658065 L6.65645161,6.72658065 L6.65645161,4.64374194 C6.65645161,4.01587097 6.98151365,3.69748387 7.62270471,3.69748387 C7.71408189,3.69748387 9.44776675,3.69748387 9.44776675,3.69748387 C9.6191067,3.69748387 9.75794045,3.55303226 9.75794045,3.37490323 L9.75794045,0.324967742 C9.75794045,0.146774194 9.6191067,0.00238709677 9.44776675,0.00238709677 L6.93256824,0.00238709677 C6.9148263,0.00148387097 6.87543424,0 6.81736973,0 C6.38095533,0 4.86401985,0.0890967742 3.66575682,1.23554839 C2.33808933,2.506 2.52264268,4.02716129 2.56674938,4.29090323 L2.56674938,6.72651613 L0.353784119,6.72651613 C0.182444169,6.72651613 0.0436104218,6.87090323 0.0436104218,7.04909677 L0.0436104218,10.3293548 C0.0436104218,10.5075484 0.182444169,10.652 0.353784119,10.652 Z" id="XMLID_835_"></path>
                        </g>
                    </g>
                </g>
            </g>
        </g>
    </g>
</svg>