<?xml version="1.0" encoding="UTF-8"?>
<svg width="20px" height="20px" viewBox="0 0 20 20" version="1.1" xmlns="http://www.w3.org/2000/svg" xmlns:xlink="http://www.w3.org/1999/xlink">
    <!-- Generator: sketchtool 52.6 (67491) - http://www.bohemiancoding.com/sketch -->
    <title>331A91DC-59E6-4F98-83B1-CEEC050971BC</title>
    <desc>Created with sketchtool.</desc>
    <g id="Page-1" stroke="none" stroke-width="1" fill="none" fill-rule="evenodd">
        <g id="Main-Page" transform="translate(-995.000000, -1857.000000)" fill="#FFFFFF" fill-rule="nonzero">
            <g id="Footer" transform="translate(0.000000, 1757.000000)">
                <g id="Social-Media">
                    <g transform="translate(845.000000, 60.000000)">
                        <g id="google-plus-logo-symbol-svgrepo-com" transform="translate(150.000000, 40.000000)">
                            <path d="M19.5358621,2.92275862 L19.5358621,4.25172414 L16.877931,4.25172414 L16.877931,6.90827586 L15.5489655,6.90827586 L15.5489655,4.25172414 L12.8917241,4.25172414 L12.8917241,2.92275862 L15.5489655,2.92275862 L15.5489655,0.264827586 L16.877931,0.264827586 L16.877931,2.92275862 L19.5358621,2.92275862 Z M11.1434483,1.35034483 L9.63172414,1.35034483 C10.6993103,1.96137931 11.2655172,3.21931034 11.2655172,4.60689655 C11.2655172,5.88068966 10.5613793,6.9062069 9.56413793,7.68551724 C8.59172414,8.44551724 8.40689655,8.76344828 8.40689655,9.40965517 C8.40689655,9.96068966 9.56965517,10.7827586 10.1034483,11.1834483 C11.962069,12.577931 12.34,13.4558621 12.34,15.2006897 C12.34,17.3772414 9.99310345,19.542069 6.17793103,19.542069 C2.83034483,19.542069 0.00689655172,18.18 0.00689655172,16.0034483 C0.00689655172,13.7931034 2.34896552,11.4910345 5.69655172,11.4910345 C6.06137931,11.4910345 6.39586207,11.48 6.74137931,11.48 C6.28344828,11.0344828 5.91448276,10.6517241 5.91448276,9.97862069 C5.91448276,9.57862069 6.04137931,9.19724138 6.21931034,8.85517241 C6.03793103,8.86827586 5.85241379,8.87931034 5.66068966,8.87931034 C2.91172414,8.87931034 1.30965517,6.94827586 1.30965517,4.52551724 C1.30896552,2.15517241 3.7462069,0 6.66827586,0 C8.17517241,0 12.4282759,0 12.4282759,0 L11.1434483,1.35034483 Z M7.95310345,12.4110345 C7.49862069,12.2627586 6.9937931,12.1751724 6.45517241,12.1696552 C4.14206897,12.1441379 2.18206897,13.6310345 2.18206897,15.3551724 C2.18206897,17.1144828 3.85310345,18.5772414 6.16482759,18.5772414 C9.41793103,18.5772414 10.5510345,17.2034483 10.5510345,15.4441379 C10.5510345,15.2303448 10.5241379,15.0255172 10.477931,14.8248276 C10.2213793,13.8296552 9.21103448,13.2841379 7.95310345,12.4110345 Z M8.95103448,4.6937931 C8.68413793,2.65517241 7.35655172,0.982758621 5.80413793,0.935172414 C4.25241379,0.889655172 3.20896552,2.44965517 3.48,4.48827586 C3.74758621,6.52689655 5.22137931,7.95103448 6.77448276,7.99862069 C8.32482759,8.04413793 9.21724138,6.73241379 8.95103448,4.6937931 Z" id="Shape"></path>
                        </g>
                    </g>
                </g>
            </g>
        </g>
    </g>
</svg>