<?xml version="1.0" encoding="UTF-8"?>
<svg width="25px" height="20px" viewBox="0 0 25 20" version="1.1" xmlns="http://www.w3.org/2000/svg" xmlns:xlink="http://www.w3.org/1999/xlink">
    <!-- Generator: sketchtool 52.6 (67491) - http://www.bohemiancoding.com/sketch -->
    <title>52AA65AE-1116-43F5-82F6-8420E0D440C5</title>
    <desc>Created with sketchtool.</desc>
    <g id="Page-1" stroke="none" stroke-width="1" fill="none" fill-rule="evenodd">
        <g id="Main-Page" transform="translate(-845.000000, -1857.000000)" fill="#FFFFFF">
            <g id="Footer" transform="translate(0.000000, 1757.000000)">
                <g id="Social-Media">
                    <g transform="translate(845.000000, 60.000000)">
                        <g id="twitter-svgrepo-com" transform="translate(0.000000, 40.000000)">
                            <path d="M0,17.7010117 C2.26257911,19.128249 4.95,19.9607004 7.83742089,19.9607004 C17.2417722,19.9607004 22.3843354,12.2974319 22.3843354,5.65128405 C22.3843354,5.43346304 22.3793513,5.21649805 22.3696203,5.00070039 C23.36875,4.29167315 24.2355222,3.4059144 24.9209652,2.39735409 C24.0040348,2.79735409 23.0186709,3.06785992 21.9844146,3.18941634 C23.0401108,2.56684825 23.8507911,1.5814786 24.2324367,0.407003891 C23.244462,0.983190661 22.1502373,1.40194553 20.9857595,1.62731518 C20.0531646,0.649883268 18.7243671,0.0392996109 17.2537184,0.0392996109 C14.4303006,0.0392996109 12.1409019,2.29105058 12.1409019,5.06832685 C12.1409019,5.46249027 12.1863133,5.8463035 12.2735759,6.21455253 C8.02436709,6.00459144 4.25696203,4.00256809 1.73536392,0.959610895 C1.29517405,1.70256809 1.04303797,2.56638132 1.04303797,3.48817121 C1.04303797,5.23284047 1.94541139,6.77229572 3.31740506,7.67416342 C2.47919304,7.64801556 1.69082278,7.42163424 1.00166139,7.04505837 C1.00118671,7.06614786 1.00118671,7.08715953 1.00118671,7.10840467 C1.00118671,9.54505837 2.76368671,11.5775875 5.10253165,12.0397665 C4.67349684,12.1544747 4.22175633,12.2162646 3.75545886,12.2162646 C3.42602848,12.2162646 3.1056962,12.1846693 2.79335443,12.1257588 C3.44406646,14.1238911 5.33235759,15.5779767 7.56969937,15.6183658 C5.81977848,16.9674708 3.61526899,17.7715175 1.21985759,17.7715175 C0.806882911,17.7715953 0.4,17.7477821 0,17.7010117 Z" id="Path"></path>
                        </g>
                    </g>
                </g>
            </g>
        </g>
    </g>
</svg>